# xmcd
#
# Track frame offsets:
#	150
#	12245
#	28540
#	48912
#	62157
#	76387
#	89212
#	101787
#	117957
#	139032
#	151467
#	171482
#	189130
#
# Disc length: 2716 seconds
#
# Revision: 0
# Processed by: cddbd v1.5.2PL0 Copyright (c) Steve Scherf et al.
# Submitted via: dBpowerAMP V4.0
#
DISCID=ab0a9a0d
DTITLE=White Sands Panhandle Band - Taking Dixie Home
DYEAR=1999
DGENRE=Bluegrass
TTITLE0=Swinging Little Guitar Man
TTITLE1=Walking Through My Memories
TTITLE2=Taking Dixie Home
TTITLE3=Ruby
TTITLE4=Sugarland Run
TTITLE5=East Virginia Blues
TTITLE6=Cool Water
TTITLE7=Cajun Baby
TTITLE8=Lonesome River
TTITLE9=I Call Your Name
TTITLE10=Runaway
TTITLE11=Wedding Bells
TTITLE12=Friend In California
EXTD=No Label\n\nSubmitted by Rich Price
EXTT0=
EXTT1=
EXTT2=
EXTT3=
EXTT4=
EXTT5=
EXTT6=
EXTT7=
EXTT8=
EXTT9=
EXTT10=
EXTT11=
EXTT12=
PLAYORDER=
